<svg width="560" height="317" viewBox="0 0 560 317" fill="none" xmlns="http://www.w3.org/2000/svg">
<g clip-path="url(#clip0_33_58)">
<path d="M88.2669 143.546C77.0928 143.546 66.3763 139.107 58.475 131.206C50.5737 123.305 46.1348 112.588 46.1348 101.414C46.1348 90.24 50.5737 79.5235 58.475 71.6222C66.3763 63.7209 77.0928 59.282 88.2669 59.282H471.73C482.904 59.282 493.621 63.7209 501.522 71.6222C509.424 79.5235 513.862 90.24 513.862 101.414C513.862 112.588 509.424 123.305 501.522 131.206C493.621 139.107 482.904 143.546 471.73 143.546H88.2669Z" fill="#E6E6E6"/>
<path d="M88.2669 64.7775C78.5503 64.7775 69.2316 68.6374 62.3609 75.5081C55.4902 82.3788 51.6303 91.6975 51.6303 101.414C51.6303 111.131 55.4902 120.449 62.3609 127.32C69.2316 134.191 78.5503 138.051 88.2669 138.051H471.73C481.447 138.051 490.766 134.191 497.636 127.32C504.507 120.449 508.367 111.131 508.367 101.414C508.367 91.6975 504.507 82.3788 497.636 75.5081C490.766 68.6374 481.447 64.7775 471.73 64.7775H88.2669Z" fill="white"/>
<path d="M128.364 64.7776H127.143V138.051H128.364V64.7776Z" fill="#E6E6E6"/>
<path d="M204.588 64.7776H203.367V138.051H204.588V64.7776Z" fill="#E6E6E6"/>
<path d="M280.914 64.7776H279.693V138.051H280.914V64.7776Z" fill="#E6E6E6"/>
<path d="M356.63 64.7776H355.409V138.051H356.63V64.7776Z" fill="#E6E6E6"/>
<path d="M432.956 64.7776H431.735V138.051H432.956V64.7776Z" fill="#E6E6E6"/>
<path d="M148.215 90.4231C147.983 90.4227 147.752 90.4681 147.537 90.5567C147.323 90.6454 147.127 90.7756 146.963 90.9398C146.798 91.104 146.668 91.2991 146.579 91.5138C146.49 91.7285 146.444 91.9587 146.444 92.1912C146.444 92.4237 146.49 92.6538 146.579 92.8686C146.668 93.0833 146.798 93.2784 146.963 93.4426C147.127 93.6068 147.323 93.737 147.537 93.8256C147.752 93.9143 147.983 93.9597 148.215 93.9593H184.082C184.314 93.9597 184.544 93.9144 184.759 93.826C184.974 93.7376 185.169 93.6077 185.333 93.4439C185.498 93.28 185.628 93.0853 185.718 92.871C185.807 92.6567 185.853 92.4268 185.854 92.1946C185.854 91.9625 185.809 91.7324 185.72 91.5178C185.632 91.3031 185.502 91.1079 185.338 90.9434C185.174 90.7789 184.98 90.6483 184.765 90.559C184.551 90.4697 184.321 90.4236 184.089 90.4231H148.215Z" fill="#E6E6E6"/>
<path d="M148.215 99.5823C147.983 99.5818 147.752 99.6273 147.537 99.7159C147.323 99.8046 147.127 99.9347 146.963 100.099C146.798 100.263 146.668 100.458 146.579 100.673C146.49 100.888 146.444 101.118 146.444 101.35C146.444 101.583 146.49 101.813 146.579 102.028C146.668 102.242 146.798 102.438 146.963 102.602C147.127 102.766 147.323 102.896 147.537 102.985C147.752 103.073 147.983 103.119 148.215 103.118H184.082C184.314 103.119 184.544 103.074 184.759 102.985C184.974 102.897 185.169 102.767 185.333 102.603C185.498 102.439 185.628 102.245 185.718 102.03C185.807 101.816 185.853 101.586 185.854 101.354C185.854 101.122 185.809 100.892 185.72 100.677C185.632 100.462 185.502 100.267 185.338 100.103C185.174 99.9381 184.98 99.8075 184.765 99.7182C184.551 99.6289 184.321 99.5827 184.089 99.5823H148.215Z" fill="#E6E6E6"/>
<path d="M148.215 108.741C147.983 108.741 147.752 108.786 147.537 108.875C147.323 108.964 147.127 109.094 146.963 109.258C146.798 109.422 146.668 109.617 146.579 109.832C146.49 110.047 146.444 110.277 146.444 110.51C146.444 110.742 146.49 110.972 146.579 111.187C146.668 111.402 146.798 111.597 146.963 111.761C147.127 111.925 147.323 112.055 147.537 112.144C147.752 112.233 147.983 112.278 148.215 112.278H184.082C184.314 112.278 184.544 112.233 184.759 112.144C184.974 112.056 185.169 111.926 185.333 111.762C185.498 111.598 185.628 111.404 185.718 111.189C185.807 110.975 185.853 110.745 185.854 110.513C185.854 110.281 185.809 110.051 185.72 109.836C185.632 109.621 185.502 109.426 185.338 109.262C185.174 109.097 184.98 108.967 184.765 108.877C184.551 108.788 184.321 108.742 184.089 108.741H148.215Z" fill="#E6E6E6"/>
<path d="M223.931 90.4231C223.698 90.4227 223.468 90.4681 223.253 90.5567C223.038 90.6454 222.843 90.7756 222.678 90.9398C222.514 91.104 222.383 91.2991 222.294 91.5138C222.205 91.7285 222.159 91.9587 222.159 92.1912C222.159 92.4237 222.205 92.6538 222.294 92.8686C222.383 93.0833 222.514 93.2784 222.678 93.4426C222.843 93.6068 223.038 93.737 223.253 93.8256C223.468 93.9143 223.698 93.9597 223.931 93.9593H259.798C260.03 93.9597 260.261 93.9143 260.475 93.8256C260.69 93.737 260.886 93.6068 261.05 93.4426C261.215 93.2784 261.345 93.0833 261.434 92.8686C261.523 92.6538 261.569 92.4237 261.569 92.1912C261.569 91.9587 261.523 91.7285 261.434 91.5138C261.345 91.2991 261.215 91.104 261.05 90.9398C260.886 90.7756 260.69 90.6454 260.475 90.5567C260.261 90.4681 260.03 90.4227 259.798 90.4231H223.931Z" fill="#2181C2"/>
<path d="M223.931 99.5823C223.698 99.5818 223.468 99.6273 223.253 99.7159C223.038 99.8046 222.843 99.9347 222.678 100.099C222.514 100.263 222.383 100.458 222.294 100.673C222.205 100.888 222.159 101.118 222.159 101.35C222.159 101.583 222.205 101.813 222.294 102.028C222.383 102.242 222.514 102.438 222.678 102.602C222.843 102.766 223.038 102.896 223.253 102.985C223.468 103.073 223.698 103.119 223.931 103.118H259.798C260.03 103.119 260.261 103.073 260.475 102.985C260.69 102.896 260.886 102.766 261.05 102.602C261.215 102.438 261.345 102.242 261.434 102.028C261.523 101.813 261.569 101.583 261.569 101.35C261.569 101.118 261.523 100.888 261.434 100.673C261.345 100.458 261.215 100.263 261.05 100.099C260.886 99.9347 260.69 99.8046 260.475 99.7159C260.261 99.6273 260.03 99.5818 259.798 99.5823H223.931Z" fill="#2181C2"/>
<path d="M223.931 108.741C223.698 108.741 223.468 108.786 223.253 108.875C223.038 108.964 222.843 109.094 222.678 109.258C222.514 109.422 222.383 109.617 222.294 109.832C222.205 110.047 222.159 110.277 222.159 110.51C222.159 110.742 222.205 110.972 222.294 111.187C222.383 111.402 222.514 111.597 222.678 111.761C222.843 111.925 223.038 112.055 223.253 112.144C223.468 112.233 223.698 112.278 223.931 112.278H259.798C260.03 112.278 260.261 112.233 260.475 112.144C260.69 112.055 260.886 111.925 261.05 111.761C261.215 111.597 261.345 111.402 261.434 111.187C261.523 110.972 261.569 110.742 261.569 110.51C261.569 110.277 261.523 110.047 261.434 109.832C261.345 109.617 261.215 109.422 261.05 109.258C260.886 109.094 260.69 108.964 260.475 108.875C260.261 108.786 260.03 108.741 259.798 108.741H223.931Z" fill="#2181C2"/>
<path d="M300.257 90.4231C299.789 90.424 299.34 90.6106 299.009 90.9421C298.678 91.2736 298.492 91.7228 298.492 92.1912C298.492 92.6596 298.678 93.1088 299.009 93.4403C299.34 93.7717 299.789 93.9584 300.257 93.9593H336.124C336.357 93.9597 336.587 93.9143 336.802 93.8256C337.017 93.737 337.212 93.6068 337.376 93.4426C337.541 93.2784 337.672 93.0833 337.761 92.8686C337.85 92.6538 337.896 92.4237 337.896 92.1912C337.896 91.9587 337.85 91.7285 337.761 91.5138C337.672 91.2991 337.541 91.104 337.376 90.9398C337.212 90.7756 337.017 90.6454 336.802 90.5567C336.587 90.4681 336.357 90.4227 336.124 90.4231H300.257Z" fill="#E6E6E6"/>
<path d="M300.257 99.5823C299.789 99.5831 299.34 99.7698 299.009 100.101C298.678 100.433 298.492 100.882 298.492 101.35C298.492 101.819 298.678 102.268 299.009 102.599C299.34 102.931 299.789 103.118 300.257 103.118H336.124C336.357 103.119 336.587 103.073 336.802 102.985C337.017 102.896 337.212 102.766 337.376 102.602C337.541 102.438 337.672 102.242 337.761 102.028C337.85 101.813 337.896 101.583 337.896 101.35C337.896 101.118 337.85 100.888 337.761 100.673C337.672 100.458 337.541 100.263 337.376 100.099C337.212 99.9347 337.017 99.8046 336.802 99.7159C336.587 99.6273 336.357 99.5818 336.124 99.5823H300.257Z" fill="#E6E6E6"/>
<path d="M300.257 108.741C299.789 108.742 299.34 108.929 299.009 109.26C298.678 109.592 298.492 110.041 298.492 110.51C298.492 110.978 298.678 111.427 299.009 111.759C299.34 112.09 299.789 112.277 300.257 112.278H336.124C336.357 112.278 336.587 112.233 336.802 112.144C337.017 112.055 337.212 111.925 337.376 111.761C337.541 111.597 337.672 111.402 337.761 111.187C337.85 110.972 337.896 110.742 337.896 110.51C337.896 110.277 337.85 110.047 337.761 109.832C337.672 109.617 337.541 109.422 337.376 109.258C337.212 109.094 337.017 108.964 336.802 108.875C336.587 108.786 336.357 108.741 336.124 108.741H300.257Z" fill="#E6E6E6"/>
<path d="M376.278 90.4231C375.81 90.424 375.361 90.6106 375.03 90.9421C374.699 91.2736 374.513 91.7228 374.513 92.1912C374.513 92.6596 374.699 93.1088 375.03 93.4403C375.361 93.7717 375.81 93.9584 376.278 93.9593H412.145C412.378 93.9597 412.608 93.9143 412.823 93.8256C413.038 93.737 413.233 93.6068 413.398 93.4426C413.562 93.2784 413.693 93.0833 413.782 92.8686C413.871 92.6538 413.917 92.4237 413.917 92.1912C413.917 91.9587 413.871 91.7285 413.782 91.5138C413.693 91.2991 413.562 91.104 413.398 90.9398C413.233 90.7756 413.038 90.6454 412.823 90.5567C412.608 90.4681 412.378 90.4227 412.145 90.4231H376.278Z" fill="#E6E6E6"/>
<path d="M376.278 99.5823C375.81 99.5831 375.361 99.7698 375.03 100.101C374.699 100.433 374.513 100.882 374.513 101.35C374.513 101.819 374.699 102.268 375.03 102.599C375.361 102.931 375.81 103.118 376.278 103.118H412.145C412.378 103.119 412.608 103.073 412.823 102.985C413.038 102.896 413.233 102.766 413.398 102.602C413.562 102.438 413.693 102.242 413.782 102.028C413.871 101.813 413.917 101.583 413.917 101.35C413.917 101.118 413.871 100.888 413.782 100.673C413.693 100.458 413.562 100.263 413.398 100.099C413.233 99.9347 413.038 99.8046 412.823 99.7159C412.608 99.6273 412.378 99.5818 412.145 99.5823H376.278Z" fill="#E6E6E6"/>
<path d="M376.278 108.741C375.81 108.742 375.361 108.929 375.03 109.26C374.699 109.592 374.513 110.041 374.513 110.51C374.513 110.978 374.699 111.427 375.03 111.759C375.361 112.09 375.81 112.277 376.278 112.278H412.145C412.378 112.278 412.608 112.233 412.823 112.144C413.038 112.055 413.233 111.925 413.398 111.761C413.562 111.597 413.693 111.402 413.782 111.187C413.871 110.972 413.917 110.742 413.917 110.51C413.917 110.277 413.871 110.047 413.782 109.832C413.693 109.617 413.562 109.422 413.398 109.258C413.233 109.094 413.038 108.964 412.823 108.875C412.608 108.786 412.378 108.741 412.145 108.741H376.278Z" fill="#E6E6E6"/>
<path d="M450.467 90.4231C449.999 90.424 449.55 90.6106 449.219 90.9421C448.888 91.2736 448.703 91.7228 448.703 92.1912C448.703 92.6596 448.888 93.1088 449.219 93.4403C449.55 93.7717 449.999 93.9584 450.467 93.9593H486.334C486.567 93.9597 486.797 93.9143 487.012 93.8256C487.227 93.737 487.422 93.6068 487.587 93.4426C487.751 93.2784 487.882 93.0833 487.971 92.8686C488.06 92.6538 488.106 92.4237 488.106 92.1912C488.106 91.9587 488.06 91.7285 487.971 91.5138C487.882 91.2991 487.751 91.104 487.587 90.9398C487.422 90.7756 487.227 90.6454 487.012 90.5567C486.797 90.4681 486.567 90.4227 486.334 90.4231H450.467Z" fill="#E6E6E6"/>
<path d="M450.467 99.5823C449.999 99.5831 449.55 99.7698 449.219 100.101C448.888 100.433 448.703 100.882 448.703 101.35C448.703 101.819 448.888 102.268 449.219 102.599C449.55 102.931 449.999 103.118 450.467 103.118H486.334C486.567 103.119 486.797 103.073 487.012 102.985C487.227 102.896 487.422 102.766 487.587 102.602C487.751 102.438 487.882 102.242 487.971 102.028C488.06 101.813 488.106 101.583 488.106 101.35C488.106 101.118 488.06 100.888 487.971 100.673C487.882 100.458 487.751 100.263 487.587 100.099C487.422 99.9347 487.227 99.8046 487.012 99.7159C486.797 99.6273 486.567 99.5818 486.334 99.5823H450.467Z" fill="#E6E6E6"/>
<path d="M450.467 108.741C449.999 108.742 449.55 108.929 449.219 109.26C448.888 109.592 448.703 110.041 448.703 110.51C448.703 110.978 448.888 111.427 449.219 111.759C449.55 112.09 449.999 112.277 450.467 112.278H486.334C486.567 112.278 486.797 112.233 487.012 112.144C487.227 112.055 487.422 111.925 487.587 111.761C487.751 111.597 487.882 111.402 487.971 111.187C488.06 110.972 488.106 110.742 488.106 110.51C488.106 110.277 488.06 110.047 487.971 109.832C487.882 109.617 487.751 109.422 487.587 109.258C487.422 109.094 487.227 108.964 487.012 108.875C486.797 108.786 486.567 108.741 486.334 108.741H450.467Z" fill="#E6E6E6"/>
<path d="M71.8888 90.4231C71.4204 90.424 70.9716 90.6106 70.6407 90.9421C70.3098 91.2736 70.124 91.7228 70.124 92.1912C70.124 92.6596 70.3098 93.1088 70.6407 93.4403C70.9716 93.7717 71.4204 93.9584 71.8888 93.9593H107.756C107.988 93.9597 108.218 93.9144 108.433 93.826C108.647 93.7376 108.843 93.6077 109.007 93.4439C109.172 93.28 109.302 93.0853 109.391 92.871C109.481 92.6567 109.527 92.4268 109.527 92.1946C109.528 91.9625 109.483 91.7324 109.394 91.5178C109.306 91.3031 109.176 91.1079 109.012 90.9434C108.848 90.7789 108.653 90.6483 108.439 90.559C108.225 90.4697 107.995 90.4235 107.763 90.4231H71.8888Z" fill="#E6E6E6"/>
<path d="M71.8888 99.5823C71.4204 99.5831 70.9716 99.7698 70.6407 100.101C70.3098 100.433 70.124 100.882 70.124 101.35C70.124 101.819 70.3098 102.268 70.6407 102.599C70.9716 102.931 71.4204 103.118 71.8888 103.118H107.756C107.988 103.119 108.218 103.074 108.433 102.985C108.647 102.897 108.843 102.767 109.007 102.603C109.172 102.439 109.302 102.245 109.391 102.03C109.481 101.816 109.527 101.586 109.527 101.354C109.528 101.122 109.483 100.892 109.394 100.677C109.306 100.462 109.176 100.267 109.012 100.103C108.848 99.9381 108.653 99.8074 108.439 99.7182C108.225 99.6289 107.995 99.5827 107.763 99.5823H71.8888Z" fill="#E6E6E6"/>
<path d="M71.8888 108.741C71.4204 108.742 70.9716 108.929 70.6407 109.26C70.3098 109.592 70.124 110.041 70.124 110.51C70.124 110.978 70.3098 111.427 70.6407 111.759C70.9716 112.09 71.4204 112.277 71.8888 112.278H107.756C107.988 112.278 108.218 112.233 108.433 112.144C108.647 112.056 108.843 111.926 109.007 111.762C109.172 111.598 109.302 111.404 109.391 111.189C109.481 110.975 109.527 110.745 109.527 110.513C109.528 110.281 109.483 110.051 109.394 109.836C109.306 109.621 109.176 109.426 109.012 109.262C108.848 109.097 108.653 108.967 108.439 108.877C108.225 108.788 107.995 108.742 107.763 108.741H71.8888Z" fill="#E6E6E6"/>
<path d="M241.907 57.864C257.886 57.864 270.839 44.9107 270.839 28.932C270.839 12.9533 257.886 0 241.907 0C225.929 0 212.975 12.9533 212.975 28.932C212.975 44.9107 225.929 57.864 241.907 57.864Z" fill="#2181C2"/>
<path d="M241.907 75.9648L232.861 60.296L223.814 44.6271H241.907H260L250.954 60.296L241.907 75.9648Z" fill="#2181C2"/>
<path d="M242.141 39.1318C247.874 39.1318 252.521 34.4843 252.521 28.7514C252.521 23.0185 247.874 18.371 242.141 18.371C236.408 18.371 231.76 23.0185 231.76 28.7514C231.76 34.4843 236.408 39.1318 242.141 39.1318Z" fill="white"/>
<path d="M541.714 107.364C541.592 107.364 541.472 107.34 541.359 107.293C541.246 107.246 541.144 107.178 541.058 107.092L536.048 102.082C535.874 101.908 535.777 101.672 535.777 101.426C535.777 101.18 535.874 100.944 536.048 100.77C536.222 100.596 536.458 100.499 536.704 100.499C536.95 100.499 537.186 100.596 537.36 100.77L541.605 105.015L549.13 94.7544C549.276 94.5564 549.494 94.4244 549.737 94.3873C549.98 94.3501 550.228 94.4109 550.426 94.5562C550.624 94.7016 550.757 94.9196 550.794 95.1625C550.832 95.4054 550.771 95.6533 550.626 95.8517L542.462 106.985C542.383 107.092 542.282 107.182 542.165 107.247C542.048 107.312 541.918 107.351 541.785 107.361C541.761 107.363 541.737 107.364 541.714 107.364Z" fill="#2181C2"/>
<path d="M12.4584 107.222C12.2749 107.222 12.0955 107.168 11.943 107.066C11.7905 106.964 11.6716 106.819 11.6014 106.649C11.5312 106.48 11.5128 106.293 11.5486 106.113C11.5844 105.933 11.6727 105.768 11.8024 105.638L21.6905 95.7507C21.8645 95.5772 22.1003 95.4799 22.3461 95.4801C22.5918 95.4803 22.8274 95.578 23.0012 95.7518C23.175 95.9256 23.2727 96.1612 23.2729 96.4069C23.2731 96.6527 23.1758 96.8885 23.0024 97.0625L13.1143 106.95C13.0282 107.037 12.926 107.105 12.8134 107.152C12.7009 107.198 12.5802 107.222 12.4584 107.222Z" fill="#2181C2"/>
<path d="M22.3463 107.222C22.2244 107.222 22.1037 107.198 21.9912 107.152C21.8786 107.105 21.7764 107.036 21.6903 106.95L11.8026 97.0625C11.6287 96.8885 11.5309 96.6525 11.5309 96.4065C11.5309 96.1605 11.6287 95.9246 11.8027 95.7506C11.9766 95.5766 12.2126 95.4789 12.4586 95.4789C12.7046 95.4789 12.9406 95.5766 13.1145 95.7506L23.0022 105.638C23.1319 105.768 23.2202 105.933 23.256 106.113C23.2918 106.293 23.2734 106.48 23.2032 106.649C23.133 106.819 23.0141 106.964 22.8616 107.066C22.7091 107.168 22.5297 107.222 22.3463 107.222Z" fill="#2181C2"/>
<path d="M359.011 205.81C358.17 205.348 357.441 204.707 356.875 203.933C356.309 203.159 355.919 202.271 355.734 201.33C355.548 200.389 355.571 199.419 355.801 198.488C356.031 197.557 356.463 196.688 357.065 195.941L348.584 136.801L362.844 137.194L366.696 195.203C367.883 196.298 368.627 197.79 368.787 199.397C368.947 201.003 368.512 202.613 367.564 203.92C366.617 205.228 365.223 206.142 363.647 206.49C362.07 206.839 360.42 206.596 359.011 205.81Z" fill="#A0616A"/>
<path d="M346.725 146.45C346.401 146.179 346.138 145.842 345.956 145.46C345.774 145.079 345.676 144.663 345.669 144.24L345.43 129.48C345.077 127.347 345.585 125.16 346.842 123.401C348.099 121.641 350.003 120.452 352.135 120.093C354.268 119.735 356.456 120.237 358.219 121.489C359.982 122.741 361.176 124.642 361.541 126.773L366.067 140.874C366.196 141.277 366.237 141.702 366.187 142.122C366.137 142.542 365.997 142.946 365.776 143.306C365.556 143.667 365.261 143.976 364.91 144.212C364.56 144.448 364.162 144.606 363.745 144.675L349.089 147.094C348.672 147.163 348.245 147.141 347.837 147.03C347.429 146.919 347.05 146.721 346.725 146.45Z" fill="#2181C2"/>
<path d="M319.565 308.261H312.08L308.518 279.386H319.567L319.565 308.261Z" fill="#A0616A"/>
<path d="M321.475 315.517L297.337 315.516V315.211C297.337 313.977 297.58 312.756 298.052 311.616C298.524 310.476 299.216 309.44 300.089 308.568C300.961 307.695 301.997 307.003 303.137 306.531C304.277 306.059 305.498 305.816 306.732 305.816L321.475 305.817L321.475 315.517Z" fill="#2F2E41"/>
<path d="M361.698 308.261H354.212L350.65 279.386H361.699L361.698 308.261Z" fill="#A0616A"/>
<path d="M363.607 315.517L339.469 315.516V315.211C339.469 313.977 339.712 312.756 340.184 311.616C340.656 310.476 341.348 309.44 342.221 308.568C343.093 307.695 344.129 307.003 345.269 306.531C346.409 306.059 347.631 305.816 348.864 305.816L363.607 305.817L363.607 315.517Z" fill="#2F2E41"/>
<path d="M351.154 294.422L338.061 225.423C338.025 225.213 337.915 225.022 337.751 224.887C337.586 224.751 337.379 224.679 337.165 224.684H337.162C336.949 224.678 336.742 224.749 336.577 224.883C336.413 225.018 336.302 225.207 336.265 225.416L322.654 294.278C322.519 294.935 322.149 295.52 321.613 295.923C321.077 296.326 320.412 296.519 319.743 296.465L309.103 295.615C308.739 295.585 308.386 295.484 308.062 295.317C307.738 295.15 307.451 294.921 307.217 294.642C306.983 294.363 306.806 294.04 306.698 293.692C306.59 293.344 306.552 292.978 306.586 292.616L315.538 195.881L361.285 197.074L361.568 197.081L366.068 293.761C366.086 294.132 366.028 294.503 365.898 294.852C365.768 295.2 365.568 295.518 365.312 295.787C365.055 296.056 364.747 296.271 364.405 296.417C364.063 296.563 363.695 296.639 363.323 296.639H353.85C353.214 296.638 352.597 296.416 352.106 296.012C351.614 295.608 351.278 295.046 351.154 294.422Z" fill="#2F2E41"/>
<path d="M336.497 110.856C344.779 110.856 351.494 104.141 351.494 95.8587C351.494 87.576 344.779 80.8615 336.497 80.8615C328.214 80.8615 321.499 87.576 321.499 95.8587C321.499 104.141 328.214 110.856 336.497 110.856Z" fill="#A0616A"/>
<path d="M314.501 201.267C313.99 201.008 313.574 200.596 313.309 200.088C313.045 199.58 312.946 199.002 313.026 198.436C314.965 184.582 313.73 160.085 312.353 141.974C311.409 129.562 319.751 118.45 331.758 116.126C331.945 116.09 332.132 116.055 332.318 116.022C336.004 115.347 339.796 115.539 343.395 116.581C346.994 117.623 350.301 119.487 353.056 122.026C355.86 124.571 358.035 127.733 359.408 131.263C360.78 134.792 361.314 138.592 360.967 142.363C359.187 162.551 362.347 192.773 362.999 198.626C363.045 199.061 362.987 199.501 362.831 199.909C362.676 200.318 362.426 200.683 362.102 200.977C356.015 206.532 348.673 208.411 341.525 208.411C329.965 208.411 318.912 203.496 314.501 201.267Z" fill="#2181C2"/>
<path d="M303.35 205.975C304.236 205.606 305.029 205.048 305.676 204.339C306.322 203.63 306.805 202.789 307.09 201.873C307.376 200.958 307.458 199.991 307.329 199.041C307.201 198.09 306.866 197.18 306.347 196.373L321.147 138.49L306.928 137.345L296.852 194.602C295.554 195.563 294.654 196.966 294.322 198.546C293.99 200.126 294.249 201.773 295.05 203.175C295.851 204.577 297.138 205.636 298.668 206.152C300.198 206.668 301.864 206.605 303.35 205.975Z" fill="#A0616A"/>
<path d="M319.537 148.668L305.226 144.685C304.819 144.572 304.441 144.372 304.118 144.1C303.795 143.827 303.534 143.488 303.354 143.106C303.174 142.724 303.078 142.307 303.073 141.884C303.069 141.462 303.155 141.043 303.327 140.657L309.345 127.125C309.937 125.045 311.329 123.284 313.217 122.229C315.104 121.174 317.333 120.911 319.415 121.497C321.496 122.082 323.261 123.47 324.321 125.355C325.381 127.239 325.651 129.468 325.071 131.551L323.244 146.199C323.191 146.619 323.049 147.022 322.827 147.381C322.604 147.741 322.307 148.048 321.956 148.282C321.604 148.517 321.206 148.672 320.788 148.739C320.371 148.805 319.944 148.781 319.537 148.668Z" fill="#2181C2"/>
<path d="M341.732 110.644C343.151 110.671 344.562 110.415 345.882 109.893C346.463 109.669 347.066 109.485 347.646 109.261C352.767 107.283 356.141 101.829 356.261 96.3406C356.382 90.852 353.54 85.5249 349.319 82.0142C345.099 78.5035 339.632 76.701 334.158 76.2842C328.261 75.8353 321.622 77.3306 318.327 82.2411C317.45 83.5482 316.837 85.1341 317.356 86.7123C317.512 87.1885 317.79 87.6155 318.163 87.9506C319.634 89.2597 321.101 88.2754 322.601 88.1884C324.663 88.0689 326.514 89.7378 327.18 91.6928C327.846 93.6478 327.553 95.8001 327.015 97.7942C326.606 98.9941 326.348 100.24 326.247 101.504C326.204 102.138 326.323 102.772 326.593 103.347C326.864 103.922 327.276 104.418 327.792 104.788C329.081 105.567 330.773 105.116 332.062 104.339C333.351 103.561 334.465 102.48 335.857 101.908C337.25 101.336 339.12 101.463 339.931 102.732C340.188 103.193 340.363 103.697 340.446 104.219C341.172 107.529 341.005 107.334 341.732 110.644Z" fill="#2F2E41"/>
<path d="M400.578 316.149H245.483C245.321 316.149 245.165 316.085 245.051 315.97C244.936 315.856 244.872 315.701 244.872 315.539C244.872 315.377 244.936 315.221 245.051 315.107C245.165 314.992 245.321 314.928 245.483 314.928H400.578C400.74 314.928 400.895 314.992 401.01 315.107C401.124 315.221 401.188 315.377 401.188 315.539C401.188 315.701 401.124 315.856 401.01 315.97C400.895 316.085 400.74 316.149 400.578 316.149Z" fill="#3F3D56"/>
<path d="M17.4024 118.753C13.9605 118.753 10.596 117.732 7.73414 115.82C4.87233 113.908 2.64182 111.19 1.32468 108.01C0.00753128 104.83 -0.337093 101.331 0.334383 97.9554C1.00586 94.5797 2.66328 91.4789 5.09704 89.0451C7.53081 86.6113 10.6316 84.9539 14.0074 84.2824C17.3831 83.611 20.8821 83.9556 24.062 85.2728C27.2419 86.5899 29.9598 88.8204 31.872 91.6822C33.7842 94.544 34.8048 97.9086 34.8048 101.35C34.7996 105.964 32.9644 110.388 29.702 113.65C26.4395 116.912 22.0162 118.748 17.4024 118.753ZM17.4024 85.7799C14.3228 85.7799 11.3124 86.6931 8.75186 88.404C6.19129 90.1149 4.19557 92.5467 3.01707 95.3919C1.83857 98.237 1.53022 101.368 2.13101 104.388C2.73181 107.409 4.21476 110.183 6.39235 112.361C8.56993 114.538 11.3443 116.021 14.3647 116.622C17.3851 117.223 20.5158 116.914 23.361 115.736C26.2061 114.557 28.6379 112.562 30.3489 110.001C32.0598 107.44 32.973 104.43 32.973 101.35C32.9683 97.2223 31.3263 93.2646 28.4073 90.3456C25.4882 87.4266 21.5305 85.7846 17.4024 85.7799Z" fill="#E6E6E6"/>
<path d="M542.598 118.652C539.156 118.652 535.791 117.631 532.929 115.719C530.068 113.807 527.837 111.089 526.52 107.909C525.203 104.729 524.858 101.23 525.53 97.8543C526.201 94.4786 527.858 91.3777 530.292 88.944C532.726 86.5102 535.827 84.8528 539.203 84.1813C542.578 83.5098 546.077 83.8545 549.257 85.1716C552.437 86.4888 555.155 88.7193 557.067 91.5811C558.979 94.4429 560 97.8075 560 101.249C559.995 105.863 558.16 110.286 554.897 113.549C551.635 116.811 547.211 118.646 542.598 118.652ZM542.598 85.6788C539.518 85.6788 536.508 86.592 533.947 88.3029C531.386 90.0138 529.391 92.4456 528.212 95.2907C527.034 98.1359 526.725 101.267 527.326 104.287C527.927 107.307 529.41 110.082 531.588 112.259C533.765 114.437 536.54 115.92 539.56 116.521C542.58 117.122 545.711 116.813 548.556 115.635C551.401 114.456 553.833 112.46 555.544 109.9C557.255 107.339 558.168 104.329 558.168 101.249C558.163 97.1212 556.521 93.1635 553.602 90.2445C550.683 87.3255 546.726 85.6835 542.598 85.6788Z" fill="#E6E6E6"/>
</g>
<defs>
<clipPath id="clip0_33_58">
<rect width="560" height="316.149" fill="white"/>
</clipPath>
</defs>
</svg>
